<svg width="114" height="120" viewBox="0 0 114 120" fill="none" xmlns="http://www.w3.org/2000/svg">
    <defs>
        <filter id="filter0_d_2689_81222" x="16.1123" y="65.4663" width="36.8581" height="14.1479" filterUnits="userSpaceOnUse" color-interpolation-filters="sRGB">
            <feFlood flood-opacity="0" result="BackgroundImageFix"/>
            <feColorMatrix in="SourceAlpha" type="matrix" values="0 0 0 0 0 0 0 0 0 0 0 0 0 0 0 0 0 0 127 0" result="hardAlpha"/>
            <feOffset/>
            <feGaussianBlur stdDeviation="0.5"/>
            <feComposite in2="hardAlpha" operator="out"/>
            <feColorMatrix type="matrix" values="0 0 0 0 0 0 0 0 0 0 0 0 0 0 0 0 0 0 0.1 0"/>
            <feBlend mode="normal" in2="BackgroundImageFix" result="effect1_dropShadow_2689_81222"/>
            <feBlend mode="normal" in="SourceGraphic" in2="effect1_dropShadow_2689_81222" result="shape"/>
        </filter>
        <filter id="filter1_d_2689_81222" x="16.1123" y="76.3452" width="22.4432" height="9.7959" filterUnits="userSpaceOnUse" color-interpolation-filters="sRGB">
            <feFlood flood-opacity="0" result="BackgroundImageFix"/>
            <feColorMatrix in="SourceAlpha" type="matrix" values="0 0 0 0 0 0 0 0 0 0 0 0 0 0 0 0 0 0 127 0" result="hardAlpha"/>
            <feOffset/>
            <feGaussianBlur stdDeviation="0.5"/>
            <feComposite in2="hardAlpha" operator="out"/>
            <feColorMatrix type="matrix" values="0 0 0 0 0 0 0 0 0 0 0 0 0 0 0 0 0 0 0.1 0"/>
            <feBlend mode="normal" in2="BackgroundImageFix" result="effect1_dropShadow_2689_81222"/>
            <feBlend mode="normal" in="SourceGraphic" in2="effect1_dropShadow_2689_81222" result="shape"/>
        </filter>
        <filter id="filter2_d_2689_81222" x="15.9764" y="87.9048" width="19.5874" height="9.7959" filterUnits="userSpaceOnUse" color-interpolation-filters="sRGB">
            <feFlood flood-opacity="0" result="BackgroundImageFix"/>
            <feColorMatrix in="SourceAlpha" type="matrix" values="0 0 0 0 0 0 0 0 0 0 0 0 0 0 0 0 0 0 127 0" result="hardAlpha"/>
            <feOffset/>
            <feGaussianBlur stdDeviation="0.5"/>
            <feComposite in2="hardAlpha" operator="out"/>
            <feColorMatrix type="matrix" values="0 0 0 0 0 0 0 0 0 0 0 0 0 0 0 0 0 0 0.1 0"/>
            <feBlend mode="normal" in2="BackgroundImageFix" result="effect1_dropShadow_2689_81222"/>
            <feBlend mode="normal" in="SourceGraphic" in2="effect1_dropShadow_2689_81222" result="shape"/>
        </filter>
        <linearGradient id="paint0_linear_2689_81222" x1="10.6072" y1="56.9006" x2="1.90386" y2="70.2275" gradientUnits="userSpaceOnUse">
            <stop stop-color="#FFCAC9"/>
            <stop offset="1" stop-color="#FFE4E4"/>
        </linearGradient>
        <linearGradient id="paint1_linear_2689_81222" x1="80.8459" y1="55.541" x2="80.8459" y2="120" gradientUnits="userSpaceOnUse">
            <stop stop-color="#E89796"/>
            <stop offset="1" stop-color="#FFCAC9"/>
        </linearGradient>
        <linearGradient id="paint2_linear_2689_81222" x1="18.4947" y1="50.2373" x2="51.1322" y2="119.864" gradientUnits="userSpaceOnUse">
            <stop offset="0.0177075" stop-color="#FFE4E4"/>
            <stop offset="1" stop-color="#FFCAC9"/>
        </linearGradient>
        <linearGradient id="paint3_linear_2689_81222" x1="113.687" y1="71.0439" x2="63.2352" y2="66.0123" gradientUnits="userSpaceOnUse">
            <stop stop-color="#FFE4E4"/>
            <stop offset="1" stop-color="#FFCAC9"/>
        </linearGradient>
        <linearGradient id="paint4_linear_2689_81222" x1="39.165" y1="45.7494" x2="50.0442" y2="68.0517" gradientUnits="userSpaceOnUse">
            <stop stop-color="#FFCAC9"/>
            <stop offset="1" stop-color="#E0B0AF"/>
        </linearGradient>
        <linearGradient id="paint5_linear_2689_81222" x1="59.2915" y1="39.494" x2="88.1213" y2="70.2277" gradientUnits="userSpaceOnUse">
            <stop stop-color="#FFCAC9"/>
            <stop offset="0.782369" stop-color="#ECBAB9"/>
        </linearGradient>
        <linearGradient id="paint6_linear_2689_81222" x1="76.973" y1="21.8091" x2="82.72" y2="18.488" gradientUnits="userSpaceOnUse">
            <stop stop-color="#EFA6A5"/>
            <stop offset="1" stop-color="#FFCAC9"/>
        </linearGradient>
        <linearGradient id="paint7_linear_2689_81222" x1="104.909" y1="4.11746" x2="68.14" y2="10.1738" gradientUnits="userSpaceOnUse">
            <stop stop-color="#D9D9D9"/>
            <stop offset="0.0001" stop-color="#FFE4E4"/>
            <stop offset="1" stop-color="#FFCAC9"/>
        </linearGradient>
        <linearGradient id="paint8_linear_2689_81222" x1="102.417" y1="6.43833" x2="72.6117" y2="27.5983" gradientUnits="userSpaceOnUse">
            <stop stop-color="#FFCAC9"/>
            <stop offset="0.819885" stop-color="#EDBBBA"/>
        </linearGradient>
        <linearGradient id="paint9_linear_2689_81222" x1="110.647" y1="-4.47649" x2="84.4982" y2="25.5524" gradientUnits="userSpaceOnUse">
            <stop stop-color="#FFCAC9"/>
            <stop offset="1" stop-color="#FFE4E4"/>
        </linearGradient>
    </defs>
    <path d="M0 69.5476L12.783 50.1011V76.6191L0 69.5476Z" fill="url(#paint0_linear_2689_81222)"/>
<path d="M101.856 98.6497L59.8355 120L60.0395 64.2444L101.856 55.541V98.6497Z" fill="url(#paint1_linear_2689_81222)"/>
<path d="M12.7831 50.2373L60.0395 64.3122L59.8355 119.864L12.7831 99.7375V50.2373Z" fill="url(#paint2_linear_2689_81222)"/>
<path d="M59.9714 64.2445L74.2503 90.7624L113.687 71.3159L99.0005 51.1895L59.9714 64.2445Z" fill="url(#paint3_linear_2689_81222)"/>
<path d="M52.764 62.0682V39.6299L12.715 50.1011L52.764 62.0682Z" fill="url(#paint4_linear_2689_81222)"/>
<path d="M99.0005 51.0531L52.764 39.562V62.0683L59.9714 64.1761L99.0005 51.0531Z" fill="url(#paint5_linear_2689_81222)"/>
<path fill-rule="evenodd" clip-rule="evenodd" d="M52.7712 40.6353L16.3849 50.227L59.9539 63.2224L95.5269 51.2614L52.7712 40.6353ZM52.4193 38.7135C52.6409 38.6551 52.8735 38.6535 53.0958 38.7087L97.94 49.8538C99.2631 50.1826 99.338 52.0352 98.0457 52.4697L60.3991 65.1279C60.1323 65.2176 59.8444 65.2226 59.5747 65.1421L13.834 51.499C12.5137 51.1052 12.5439 49.2249 13.8762 48.8737L52.4193 38.7135Z" fill="#FFE4E4"/>
<g filter="url(#filter0_d_2689_81222)">
<path fill-rule="evenodd" clip-rule="evenodd" d="M17.1562 67.1523C17.3155 66.6384 17.8611 66.351 18.3749 66.5102L51.2844 76.7094C51.7983 76.8687 52.0857 77.4143 51.9265 77.9282C51.7672 78.442 51.2216 78.7294 50.7077 78.5702L17.7983 68.371C17.2844 68.2117 16.997 67.6661 17.1562 67.1523Z" fill="#FFE8E8"/>
</g>
<g filter="url(#filter1_d_2689_81222)">
<path fill-rule="evenodd" clip-rule="evenodd" d="M17.1579 78.0259C17.3201 77.513 17.8673 77.2286 18.3802 77.3908L36.8748 83.2383C37.3877 83.4005 37.6721 83.9478 37.5099 84.4607C37.3477 84.9736 36.8005 85.2579 36.2875 85.0958L17.793 79.2482C17.28 79.086 16.9957 78.5388 17.1579 78.0259Z" fill="#FFE8E8"/>
</g>
<g filter="url(#filter2_d_2689_81222)">
<path fill-rule="evenodd" clip-rule="evenodd" d="M17.0383 89.5379C17.2267 89.0341 17.7879 88.7783 18.2918 88.9667L33.9306 94.8143C34.4345 95.0027 34.6902 95.5639 34.5018 96.0678C34.3134 96.5716 33.7522 96.8274 33.2483 96.639L17.6095 90.7914C17.1057 90.603 16.8499 90.0418 17.0383 89.5379Z" fill="#FFE8E8"/>
</g>
<path fill-rule="evenodd" clip-rule="evenodd" d="M70.6212 29.0033C70.8259 29.2528 70.7896 29.621 70.5401 29.8258C70.3834 29.9543 70.2283 30.0821 70.0747 30.209C69.826 30.4147 69.4576 30.3798 69.2519 30.131C69.0463 29.8822 69.0812 29.5138 69.33 29.3082C69.4847 29.1803 69.6409 29.0517 69.7987 28.9222C70.0482 28.7175 70.4164 28.7538 70.6212 29.0033ZM68.3456 30.8918C68.5552 31.1372 68.5261 31.5061 68.2806 31.7157C67.9767 31.9752 67.6798 32.2309 67.3897 32.4831C67.1461 32.6949 66.777 32.6691 66.5652 32.4255C66.3535 32.1819 66.3792 31.8128 66.6228 31.601C66.9156 31.3465 67.2152 31.0884 67.5217 30.8268C67.7672 30.6172 68.136 30.6463 68.3456 30.8918ZM65.681 33.2094C65.8977 33.4485 65.8795 33.8181 65.6403 34.0349C65.3431 34.3041 65.0544 34.5689 64.774 34.8291C64.5375 35.0487 64.1677 35.0349 63.9481 34.7984C63.7286 34.5618 63.7423 34.192 63.9789 33.9725C64.2628 33.7089 64.5549 33.441 64.8555 33.1687C65.0946 32.952 65.4642 32.9702 65.681 33.2094ZM63.0901 35.6159C63.3163 35.8462 63.313 36.2162 63.0827 36.4424C62.7976 36.7224 62.5231 36.9966 62.2589 37.2651C62.0325 37.4952 61.6625 37.4982 61.4324 37.2718C61.2024 37.0454 61.1994 36.6754 61.4258 36.4453C61.6948 36.1719 61.974 35.893 62.2636 35.6085C62.4939 35.3823 62.8639 35.3856 63.0901 35.6159ZM60.6188 38.1306C60.8582 38.3471 60.8769 38.7166 60.6604 38.956C60.3894 39.2558 60.1329 39.5472 59.8905 39.8304C59.6806 40.0756 59.3117 40.1043 59.0665 39.8944C58.8213 39.6845 58.7927 39.3156 59.0025 39.0704C59.2522 38.7787 59.5156 38.4794 59.7934 38.1722C60.0098 37.9328 60.3794 37.9141 60.6188 38.1306ZM58.3246 40.8183C58.5845 41.0097 58.6401 41.3755 58.4487 41.6354C58.2082 41.9621 57.99 42.275 57.7928 42.5744C57.6153 42.844 57.2528 42.9186 56.9833 42.741C56.7137 42.5635 56.6391 42.2011 56.8167 41.9315C57.0259 41.6138 57.2558 41.2843 57.5075 40.9424C57.6988 40.6825 58.0647 40.6269 58.3246 40.8183ZM56.3984 43.7689C56.694 43.8984 56.8287 44.243 56.6993 44.5387C56.5367 44.9099 56.4181 45.2479 56.3362 45.5551C56.253 45.867 55.9328 46.0524 55.6209 45.9692C55.3091 45.886 55.1237 45.5658 55.2068 45.2539C55.306 44.8821 55.4455 44.488 55.6286 44.0698C55.7581 43.7742 56.1027 43.6394 56.3984 43.7689ZM59.5055 44.8028C59.5873 45.115 59.4006 45.4344 59.0883 45.5162C58.7725 45.599 58.456 45.7213 58.1393 45.8811C57.8511 46.0264 57.4997 45.9107 57.3543 45.6225C57.209 45.3343 57.3247 44.9829 57.6129 44.8375C57.9949 44.6448 58.3883 44.4914 58.792 44.3856C59.1043 44.3038 59.4237 44.4905 59.5055 44.8028ZM60.6353 44.8048C60.722 44.4939 61.0443 44.3121 61.3552 44.3988C61.5578 44.4552 61.7601 44.5252 61.9621 44.6091C61.9747 44.6143 61.9871 44.62 61.9994 44.6261C62.2438 44.7483 62.4522 44.9151 62.6227 45.1121C62.834 45.3561 62.8074 45.7252 62.5634 45.9364C62.3193 46.1477 61.9503 46.1211 61.739 45.8771C61.6682 45.7952 61.5862 45.7291 61.4931 45.68C61.3409 45.6177 61.1903 45.5662 61.0414 45.5247C60.7305 45.438 60.5487 45.1157 60.6353 44.8048ZM56.4504 46.2851C56.6685 46.5229 56.6526 46.8926 56.4147 47.1108C56.3506 47.1696 56.2866 47.2298 56.2228 47.2911C56.2787 47.3438 56.3251 47.4085 56.3576 47.4835C56.4814 47.7685 56.6681 48.0008 56.9007 48.1917C57.1503 48.3964 57.1866 48.7647 56.9819 49.0142C56.7772 49.2637 56.4089 49.3001 56.1594 49.0954C55.8293 48.8246 55.5419 48.484 55.3377 48.0626C55.159 48.1013 54.9648 48.0558 54.8195 47.9231C54.5811 47.7056 54.5642 47.3359 54.7818 47.0975C55.0558 46.7973 55.3368 46.5134 55.6246 46.2494C55.8625 46.0313 56.2322 46.0472 56.4504 46.2851ZM62.6623 47.0875C62.9666 47.195 63.1262 47.5289 63.0186 47.8332C62.8714 48.2499 62.6335 48.6518 62.2999 48.9988C62.0762 49.2315 61.7063 49.2388 61.4736 49.0151C61.2409 48.7914 61.2336 48.4215 61.4572 48.1888C61.6703 47.9671 61.8224 47.7104 61.9166 47.4438C62.0241 47.1395 62.358 46.98 62.6623 47.0875ZM54.1281 48.7992C54.3918 48.9854 54.4546 49.35 54.2684 49.6137C54.0566 49.9136 53.8492 50.2233 53.6465 50.5407C53.4727 50.8127 53.1114 50.8923 52.8394 50.7186C52.5674 50.5448 52.4877 50.1835 52.6615 49.9115C52.8732 49.58 53.0906 49.2553 53.3136 48.9395C53.4998 48.6759 53.8644 48.613 54.1281 48.7992ZM58.1223 49.4034C58.1577 49.0826 58.4465 48.8512 58.7673 48.8867C58.9526 48.9071 59.1294 48.916 59.2902 48.916C59.2977 48.916 59.3052 48.9162 59.3127 48.9165C59.488 48.9232 59.6528 48.9193 59.8074 48.9063C60.129 48.8792 60.4117 49.118 60.4388 49.4396C60.4659 49.7612 60.2271 50.0439 59.9055 50.071C59.7047 50.0879 59.4958 50.0928 59.279 50.0849C59.0789 50.0845 58.8632 50.0732 58.639 50.0484C58.3182 50.013 58.0868 49.7242 58.1223 49.4034ZM52.2767 51.6831C52.5608 51.8363 52.6669 52.1908 52.5137 52.4749C52.3354 52.8054 52.1625 53.1389 51.9953 53.4733C51.8509 53.762 51.4998 53.879 51.2112 53.7346C50.9225 53.5902 50.8055 53.2392 50.9499 52.9505C51.1223 52.6059 51.3007 52.2618 51.4849 51.9201C51.6381 51.636 51.9926 51.5299 52.2767 51.6831ZM50.7402 54.7474C51.0364 54.8758 51.1724 55.2199 51.0441 55.516C50.8916 55.8678 50.7465 56.2156 50.6089 56.5571C50.4883 56.8564 50.1478 57.0014 49.8484 56.8807C49.5491 56.7601 49.4041 56.4196 49.5248 56.1203C49.666 55.7697 49.8151 55.4125 49.9716 55.0513C50.1 54.7551 50.4441 54.6191 50.7402 54.7474ZM49.4591 57.9244C49.7647 58.0284 49.928 58.3604 49.824 58.6659C49.7619 58.8483 49.703 59.0263 49.6472 59.1992C49.5481 59.5064 49.2187 59.675 48.9116 59.576C48.6044 59.4769 48.4357 59.1475 48.5348 58.8403C48.5925 58.6613 48.6535 58.4774 48.7175 58.2893C48.8216 57.9837 49.1536 57.8204 49.4591 57.9244Z" fill="#FF9B9B"/>
<path d="M73.4869 28.3543L79.5969 23.0963L77.4366 21.8601L73.4869 28.3543Z" fill="url(#paint6_linear_2689_81222)"/>
<path d="M65.2375 14.0476L74.1153 19.0184L102.612 3.94446L65.2375 14.0476Z" fill="url(#paint7_linear_2689_81222)"/>
<path d="M77.4762 21.8638L73.4849 28.3733L74.1154 19.0178L102.612 3.94379L77.4762 21.8638Z" fill="url(#paint8_linear_2689_81222)"/>
<path d="M90.3807 29.4348L102.612 3.94408L77.4739 21.8838L90.3807 29.4348Z" fill="url(#paint9_linear_2689_81222)"/>
</svg>
