<svg width="15" height="14" viewBox="0 0 15 14" fill="none" xmlns="http://www.w3.org/2000/svg">
<path fill-rule="evenodd" clip-rule="evenodd" d="M4.07887 0H4.05987C3.51118 0.0989043 2.98997 0.313982 2.53119 0.63081C2.07242 0.947638 1.68669 1.35889 1.39987 1.837C1.14535 2.24538 1.00415 2.71417 0.99079 3.1952C0.977434 3.67622 1.0924 4.15212 1.32387 4.574L1.39587 4.738C2.58887 7.676 7.06587 12.147 9.99587 13.371C10.4347 13.6351 10.9384 13.7719 11.4506 13.7661C11.9627 13.7603 12.4632 13.612 12.8959 13.338C13.3627 13.0469 13.7633 12.6612 14.072 12.2058C14.3806 11.7504 14.5904 11.2354 14.6879 10.694C14.6495 10.318 14.4766 9.96854 14.2009 9.71L14.1329 9.643L13.9439 9.468C13.2796 8.84457 12.5285 8.32078 11.7139 7.913C11.5111 7.87139 11.3021 7.87147 11.0994 7.91325C10.8967 7.95502 10.7046 8.03762 10.5349 8.156L10.3639 8.256C10.0379 8.444 9.92087 8.476 9.76387 8.42C8.97795 8.10921 8.26518 7.6385 7.67077 7.03772C7.07635 6.43694 6.61327 5.71919 6.31087 4.93C6.26687 4.807 6.28887 4.699 6.43087 4.439L6.49987 4.306C6.64233 4.12125 6.74442 3.90865 6.79954 3.68196C6.85466 3.45527 6.86159 3.21954 6.81987 2.99L6.79987 2.929C6.34463 2.07583 5.77985 1.28581 5.11987 0.579L5.03287 0.49C4.78315 0.218562 4.44497 0.0448639 4.07887 0ZM3.99987 1.007L4.03687 1.014C4.12206 1.04339 4.20009 1.09041 4.26587 1.152L4.32887 1.21L4.44787 1.336C4.96374 1.91472 5.42942 2.5363 5.83987 3.194C5.86787 3.33 5.83987 3.442 5.69087 3.709L5.61387 3.845C5.45696 4.04736 5.35309 4.28572 5.3117 4.53842C5.27031 4.79112 5.29271 5.05016 5.37687 5.292C5.73133 6.2117 6.27278 7.04784 6.96697 7.74754C7.66117 8.44725 8.493 8.99529 9.40987 9.357C9.62778 9.44066 9.8628 9.46991 10.0946 9.4422C10.3263 9.41449 10.5478 9.33067 10.7399 9.198L10.9089 9.098C11.2429 8.905 11.3649 8.863 11.5149 8.898C12.1982 9.32891 12.8421 9.81949 13.4389 10.364L13.4939 10.419C13.5942 10.5059 13.6643 10.6226 13.6939 10.752C13.6119 11.1369 13.4165 11.4883 13.1329 11.761C12.9106 12.0202 12.6634 12.257 12.3949 12.468L12.3609 12.49C12.0892 12.6589 11.7765 12.7503 11.4566 12.7544C11.1367 12.7584 10.8218 12.675 10.5459 12.513L10.3999 12.448C7.75187 11.34 3.59087 7.217 2.38987 4.506L2.31787 4.339C2.14273 4.06363 2.03863 3.74912 2.01489 3.42364C1.99116 3.09815 2.04853 2.77186 2.18187 2.474L2.23587 2.394C2.6505 1.76889 3.24704 1.28614 3.94487 1.011H4.00387L3.99987 1.007ZM9.54387 0.167H9.61187C10.9278 0.316593 12.1538 0.909269 13.0884 1.84768C14.023 2.7861 14.6106 4.01445 14.7549 5.331C14.7697 5.46361 14.7313 5.59669 14.648 5.70096C14.5648 5.80523 14.4435 5.87215 14.3109 5.887C14.1783 5.90185 14.0452 5.86342 13.9409 5.78015C13.8366 5.69689 13.7697 5.57561 13.7549 5.443C13.6351 4.3529 13.1484 3.3359 12.3744 2.5589C11.6005 1.78191 10.5855 1.29109 9.49587 1.167C9.36327 1.17018 9.23482 1.12056 9.13881 1.02904C9.04279 0.937521 8.98706 0.811608 8.98387 0.679C8.98069 0.546392 9.03032 0.41795 9.12183 0.321932C9.21335 0.225913 9.33926 0.170183 9.47187 0.167L9.53887 0.16L9.54387 0.167ZM9.58487 2.546L9.65187 2.554C10.3297 2.68689 10.9523 3.01932 11.4398 3.50861C11.9273 3.9979 12.2575 4.62172 12.3879 5.3C12.4135 5.43035 12.3862 5.56554 12.3122 5.67581C12.2381 5.78608 12.1232 5.86241 11.9929 5.888C11.8625 5.91359 11.7273 5.88636 11.6171 5.81228C11.5068 5.7382 11.4305 5.62335 11.4049 5.493C11.3124 5.01175 11.0784 4.56907 10.7327 4.22166C10.3871 3.87425 9.94564 3.63794 9.46487 3.543C9.33226 3.53531 9.20814 3.47525 9.11981 3.37605C9.03148 3.27684 8.98618 3.14661 8.99387 3.014C9.00156 2.88139 9.06162 2.75727 9.16083 2.66894C9.26003 2.58061 9.39026 2.53531 9.52287 2.543H9.58887L9.58487 2.546Z" fill="#C1C1C7"/>
</svg>
