<svg width="24" height="24" viewBox="0 0 24 24" fill="none" xmlns="http://www.w3.org/2000/svg">
<path d="M10.6179 6.53902C10.4296 6.35204 10.1747 6.24753 9.90934 6.24847C9.64398 6.2494 9.38985 6.35572 9.20288 6.54402C9.0159 6.73233 8.91138 6.9872 8.91232 7.25256C8.91326 7.51792 9.01957 7.77204 9.20788 7.95902L12.6979 11.629C12.738 11.6746 12.7601 11.7333 12.7601 11.794C12.7601 11.8547 12.738 11.9134 12.6979 11.959L9.09788 16.089C9.0112 16.1882 8.94491 16.3034 8.90277 16.4282C8.86064 16.553 8.8435 16.6848 8.85232 16.8162C8.86114 16.9476 8.89576 17.076 8.95419 17.194C9.01262 17.312 9.09373 17.4173 9.19287 17.504C9.29202 17.5907 9.40727 17.657 9.53204 17.6991C9.65681 17.7413 9.78866 17.7584 9.92005 17.7496C10.0514 17.7408 10.1798 17.7061 10.2978 17.6477C10.4159 17.5893 10.5212 17.5082 10.6079 17.409L14.8379 12.559C15.0382 12.3368 15.149 12.0482 15.149 11.749C15.149 11.4498 15.0382 11.1613 14.8379 10.939L10.6179 6.53902Z" fill="#999999"/>
</svg>
