<svg width="21" height="22" viewBox="0 0 21 22" fill="none" xmlns="http://www.w3.org/2000/svg">
<path fill-rule="evenodd" clip-rule="evenodd" d="M17.1608 6.93719C17.2346 7.02402 17.2906 7.12455 17.3255 7.23304C17.3604 7.34152 17.3736 7.45583 17.3644 7.56942C17.3551 7.68301 17.3235 7.79366 17.2714 7.89503C17.2193 7.9964 17.1477 8.0865 17.0608 8.16019L8.74978 15.2962C8.5429 15.4713 8.27588 15.5588 8.00548 15.5402C7.73508 15.5215 7.48262 15.3981 7.30178 15.1962L3.66878 11.1962C3.58741 11.1128 3.52365 11.0138 3.48129 10.9052C3.43894 10.7967 3.41886 10.6807 3.42224 10.5642C3.42563 10.4477 3.45241 10.3331 3.50099 10.2271C3.54958 10.1212 3.61897 10.0261 3.70505 9.94758C3.79113 9.86901 3.89213 9.80857 4.00205 9.76983C4.11197 9.7311 4.22855 9.71487 4.34487 9.72211C4.46118 9.72935 4.57486 9.75991 4.67912 9.81198C4.78338 9.86405 4.87611 9.93655 4.95178 10.0252L8.13378 13.4932L15.9338 6.80819C16.0219 6.73558 16.1235 6.68109 16.2328 6.64787C16.342 6.61464 16.4568 6.60332 16.5704 6.61456C16.6841 6.62581 16.7944 6.65939 16.895 6.71338C16.9956 6.76738 17.0846 6.84071 17.1568 6.92919L17.1608 6.93719Z" fill="white"/>
</svg>
