<svg width="18" height="18" viewBox="0 0 18 18" fill="none" xmlns="http://www.w3.org/2000/svg">
<g clip-path="url(#clip0_123_191)">
<path d="M14.25 0.75C14.6625 0.75 15 1.0875 15 1.5V3H16.5C16.9125 3 17.25 3.3375 17.25 3.75C17.25 4.1625 16.9125 4.5 16.5 4.5H15V6C15 6.4125 14.6625 6.75 14.25 6.75C13.8375 6.75 13.5 6.4125 13.5 6V4.5H12C11.5875 4.5 11.25 4.1625 11.25 3.75C11.25 3.3375 11.5875 3 12 3H13.5V1.5C13.5 1.0875 13.8375 0.75 14.25 0.75ZM9 9.75C9.825 9.75 10.5 9.075 10.5 8.25C10.5 7.425 9.825 6.75 9 6.75C8.175 6.75 7.5 7.425 7.5 8.25C7.5 9.075 8.175 9.75 9 9.75ZM11.04 2.6025C10.71 2.8725 10.5 3.285 10.5 3.75C10.5 4.575 11.175 5.25 12 5.25H12.75V6C12.75 6.825 13.425 7.5 14.25 7.5C14.49 7.5 14.715 7.44 14.9175 7.3425C14.97 7.68 15 8.0325 15 8.4C15 10.785 13.1625 13.59 9.495 16.8225C9.21 17.07 8.7825 17.07 8.4975 16.8225C4.8375 13.59 3 10.785 3 8.4C3 4.665 5.85 2.25 9 2.25C9.705 2.25 10.395 2.37 11.04 2.6025V2.6025Z" fill="white"/>
</g>
<defs>
<clipPath id="clip0_123_191">
<rect width="18" height="18" fill="white"/>
</clipPath>
</defs>
</svg>
