<svg width="18" height="18" viewBox="0 0 18 18" fill="none" xmlns="http://www.w3.org/2000/svg">
<g clip-path="url(#clip0_99_681)">
<path d="M14.25 2.25H11.115C10.8 1.38 9.975 0.75 9 0.75C8.025 0.75 7.2 1.38 6.885 2.25H3.75C2.925 2.25 2.25 2.925 2.25 3.75V14.25C2.25 15.075 2.925 15.75 3.75 15.75H14.25C15.075 15.75 15.75 15.075 15.75 14.25V3.75C15.75 2.925 15.075 2.25 14.25 2.25ZM9 2.25C9.4125 2.25 9.75 2.5875 9.75 3C9.75 3.4125 9.4125 3.75 9 3.75C8.5875 3.75 8.25 3.4125 8.25 3C8.25 2.5875 8.5875 2.25 9 2.25ZM9.75 12.75H6C5.5875 12.75 5.25 12.4125 5.25 12C5.25 11.5875 5.5875 11.25 6 11.25H9.75C10.1625 11.25 10.5 11.5875 10.5 12C10.5 12.4125 10.1625 12.75 9.75 12.75ZM12 9.75H6C5.5875 9.75 5.25 9.4125 5.25 9C5.25 8.5875 5.5875 8.25 6 8.25H12C12.4125 8.25 12.75 8.5875 12.75 9C12.75 9.4125 12.4125 9.75 12 9.75ZM12 6.75H6C5.5875 6.75 5.25 6.4125 5.25 6C5.25 5.5875 5.5875 5.25 6 5.25H12C12.4125 5.25 12.75 5.5875 12.75 6C12.75 6.4125 12.4125 6.75 12 6.75Z" fill="white"/>
</g>
<defs>
<clipPath id="clip0_99_681">
<rect width="18" height="18" fill="white"/>
</clipPath>
</defs>
</svg>
