<svg width="14" height="14" viewBox="0 0 14 14" fill="none" xmlns="http://www.w3.org/2000/svg">
<g clip-path="url(#clip0_116_680)">
<path d="M10.675 3.33076C10.4475 3.10326 10.08 3.10326 9.85248 3.33076L6.99998 6.17742L4.14748 3.32492C3.91998 3.09742 3.55248 3.09742 3.32498 3.32492C3.09748 3.55242 3.09748 3.91992 3.32498 4.14742L6.17748 6.99992L3.32498 9.85242C3.09748 10.0799 3.09748 10.4474 3.32498 10.6749C3.55248 10.9024 3.91998 10.9024 4.14748 10.6749L6.99998 7.82242L9.85248 10.6749C10.08 10.9024 10.4475 10.9024 10.675 10.6749C10.9025 10.4474 10.9025 10.0799 10.675 9.85242L7.82248 6.99992L10.675 4.14742C10.8966 3.92576 10.8966 3.55242 10.675 3.33076Z" fill="#28201A"/>
</g>
<defs>
<clipPath id="clip0_116_680">
<rect width="14" height="14" fill="white"/>
</clipPath>
</defs>
</svg>
