<svg width="24" height="24" viewBox="0 0 24 24" fill="none" xmlns="http://www.w3.org/2000/svg">
<path d="M19.875 9C19.8752 7.49048 19.4414 6.01272 18.6255 4.7427C17.8096 3.47268 16.6459 2.46392 15.2729 1.83655C13.8999 1.20918 12.3756 0.98964 10.8814 1.20407C9.38715 1.41849 7.98604 2.05786 6.8449 3.04601C5.70376 4.03417 4.87067 5.32948 4.44484 6.7777C4.019 8.22591 4.01838 9.766 4.44303 11.2146C4.86768 12.6631 5.69971 13.9591 6.84004 14.9482C7.98038 15.9373 9.38096 16.5778 10.875 16.7934V18.375H8.25C7.95163 18.375 7.66548 18.4935 7.4545 18.7045C7.24353 18.9155 7.125 19.2016 7.125 19.5C7.125 19.7984 7.24353 20.0845 7.4545 20.2955C7.66548 20.5065 7.95163 20.625 8.25 20.625H10.875V22.5C10.875 22.7984 10.9935 23.0845 11.2045 23.2955C11.4155 23.5065 11.7016 23.625 12 23.625C12.2984 23.625 12.5845 23.5065 12.7955 23.2955C13.0065 23.0845 13.125 22.7984 13.125 22.5V20.625H15.75C16.0484 20.625 16.3345 20.5065 16.5455 20.2955C16.7565 20.0845 16.875 19.7984 16.875 19.5C16.875 19.2016 16.7565 18.9155 16.5455 18.7045C16.3345 18.4935 16.0484 18.375 15.75 18.375H13.125V16.7934C14.9981 16.5207 16.7107 15.5834 17.9499 14.1525C19.1892 12.7217 19.8725 10.8929 19.875 9ZM6.375 9C6.375 7.88748 6.7049 6.79995 7.32298 5.87492C7.94107 4.94989 8.81957 4.22892 9.84741 3.80318C10.8752 3.37744 12.0062 3.26604 13.0974 3.48309C14.1885 3.70013 15.1908 4.23586 15.9775 5.02253C16.7641 5.8092 17.2999 6.81148 17.5169 7.90262C17.734 8.99376 17.6226 10.1248 17.1968 11.1526C16.7711 12.1804 16.0501 13.0589 15.1251 13.677C14.2001 14.2951 13.1125 14.625 12 14.625C10.5087 14.6233 9.07896 14.0301 8.02444 12.9756C6.96993 11.921 6.37674 10.4913 6.375 9Z" fill="#EA596E"/>
</svg>
