<svg width="24" height="25" viewBox="0 0 24 25" fill="none" xmlns="http://www.w3.org/2000/svg">
<g clip-path="url(#clip0_8_4989)">
<path d="M23.9886 12.511C23.9886 11.5047 23.9069 10.7704 23.7302 10.0089H12.2391V14.5509H18.9841C18.8482 15.6796 18.1138 17.3795 16.4819 18.5217L16.459 18.6738L20.0923 21.4884L20.344 21.5136C22.6558 19.3785 23.9886 16.2371 23.9886 12.511Z" fill="#4285F4"/>
<path d="M12.2391 24.4781C15.5436 24.4781 18.3177 23.3902 20.344 21.5136L16.4819 18.5217C15.4484 19.2425 14.0613 19.7456 12.2391 19.7456C9.00253 19.7456 6.25556 17.6107 5.27634 14.6597L5.13281 14.6719L1.35487 17.5957L1.30547 17.733C3.31809 21.7311 7.45218 24.4781 12.2391 24.4781Z" fill="#34A853"/>
<path d="M5.27634 14.6597C5.01797 13.8981 4.86844 13.0821 4.86844 12.239C4.86844 11.3959 5.01797 10.58 5.26275 9.81842L5.25591 9.65624L1.43062 6.68549L1.30547 6.74502C0.475969 8.40411 0 10.2672 0 12.239C0 14.2109 0.475969 16.0739 1.30547 17.733L5.27634 14.6597Z" fill="#FBBC05"/>
<path d="M12.2391 4.73241C14.5372 4.73241 16.0875 5.72512 16.9715 6.55472L20.4256 3.18216C18.3042 1.21031 15.5436 0 12.2391 0C7.45218 0 3.31809 2.74697 1.30547 6.74503L5.26275 9.81844C6.25556 6.86747 9.00253 4.73241 12.2391 4.73241Z" fill="#EB4335"/>
</g>
<defs>
<clipPath id="clip0_8_4989">
<rect width="24" height="24.5625" fill="white"/>
</clipPath>
</defs>
</svg>
