<svg width="32" height="32" viewBox="0 0 32 32" fill="none" xmlns="http://www.w3.org/2000/svg">
<path d="M15.0879 1.3125L14.1366 3.48437C13.6442 3.51442 13.1543 3.57643 12.6699 3.67L11.2148 1.791L9.64644 2.32425L9.63863 4.71487C8.97425 5.05638 8.33756 5.46925 7.73612 5.95112L5.51956 4.95312L4.38475 6.16019L5.5195 8.3125C5.15747 8.82861 4.83931 9.37414 4.56838 9.94337L2.13475 10.0097L1.64062 11.5897L3.6055 13.0371C3.51144 13.6234 3.4655 14.2157 3.46287 14.8086L1.28125 15.9141L1.50975 17.5547L3.90431 18.0234C4.04746 18.5246 4.22496 19.0154 4.43556 19.4922L2.8575 21.4512L3.73831 22.8535L6.19144 22.2793C6.34667 22.462 6.50754 22.6398 6.67381 22.8124C7.0211 23.1717 7.39103 23.5083 7.78131 23.8202L7.30475 26.2773L8.73837 27.1054L10.6114 25.4746C11.1473 25.69 11.6991 25.8637 12.2618 25.9941L12.8732 28.3944L14.5235 28.5292L15.5157 26.2655C16.2013 26.2242 16.8847 26.1217 17.5567 25.9569L19.1329 27.7831L20.67 27.1679L20.625 26.2421L17.0371 23.5214C15.9926 23.7855 14.9095 23.8562 13.8457 23.7362C11.8611 23.5124 9.95381 22.6162 8.45706 21.0683C5.03594 17.5299 5.13375 11.9014 8.67194 8.48044C10.3857 6.82337 12.5901 5.98275 14.7969 5.95894C17.1463 5.93356 19.4978 6.83369 21.2618 8.65812C24.1327 11.6276 24.5241 16.0947 22.4844 19.4766L24.4826 20.9922C24.731 20.6026 24.9554 20.1982 25.1544 19.7812L27.5704 19.7148L28.0645 18.1348L26.1134 16.6973C26.2075 16.1062 26.2552 15.5087 26.2559 14.9102L28.4239 13.8086L28.1955 12.168L25.803 11.6992C25.6017 11.0062 25.3349 10.3339 25.0061 9.69144L26.4317 7.71681L25.4786 6.36325L23.1311 7.04487C23.1016 7.01362 23.073 6.98194 23.0431 6.95112C22.6736 6.5688 22.2782 6.21245 21.8596 5.88462L22.3088 3.56431L20.875 2.73625L19.0938 4.28712C18.5171 4.05506 17.9249 3.87444 17.3242 3.74025L16.7402 1.44725L15.0879 1.3125ZM11.4531 10.9062C10.8066 10.9136 10.1658 11.0724 9.57812 11.3612L12.4044 13.5059C13.2591 14.1544 13.5016 15.3868 12.8456 16.2519C12.1895 17.1176 10.9296 17.2477 10.0625 16.5899L7.23825 14.4473C6.94906 15.9969 7.49669 17.6388 8.83788 18.6563C10.0407 19.5686 11.5844 19.7394 12.9141 19.2618L13.2129 19.1543L13.4648 19.3457L21.9141 25.756L22.166 25.9474L22.1445 26.2638C22.0422 27.6732 22.6189 29.1144 23.8223 30.0274C25.1635 31.0449 26.8938 31.1292 28.3085 30.4336L25.4844 28.2911C24.6173 27.6332 24.4042 26.3845 25.0606 25.5196C25.7169 24.6546 26.9692 24.5568 27.8242 25.2051L30.6484 27.3478C30.9369 25.7988 30.3916 24.1561 29.0508 23.1388C27.8437 22.2227 26.3122 22.0412 24.9902 22.5117L24.6934 22.6172L24.4415 22.4258L15.9921 16.0157L15.7402 15.8242L15.7618 15.5099C15.8586 14.1107 15.2711 12.6852 14.0644 11.7696C13.2804 11.1748 12.3631 10.8959 11.4532 10.9063L11.4531 10.9062ZM14.1758 16.5469L24.418 24.3184L23.7129 25.25L13.4688 17.4766L14.1758 16.5469Z" fill="#E9E0D6"/>
</svg>
