<svg width="24" height="24" viewBox="0 0 24 24" fill="none" xmlns="http://www.w3.org/2000/svg">
<path d="M20.25 2.625H15.75C15.4516 2.625 15.1655 2.74353 14.9545 2.9545C14.7435 3.16548 14.625 3.45163 14.625 3.75C14.625 4.04837 14.7435 4.33452 14.9545 4.5455C15.1655 4.75647 15.4516 4.875 15.75 4.875H17.5312L14.4637 7.94438C12.8691 6.75261 10.8822 6.20904 8.90297 6.42303C6.92372 6.63702 5.09896 7.59269 3.79587 9.09775C2.49278 10.6028 1.80808 12.5455 1.87953 14.5351C1.95098 16.5246 2.77329 18.4132 4.18099 19.8209C5.58869 21.2286 7.4773 22.0509 9.46681 22.1223C11.4563 22.1938 13.3991 21.5091 14.9041 20.206C16.4092 18.9029 17.3648 17.0781 17.5788 15.0989C17.7928 13.1196 17.2492 11.1328 16.0575 9.53813L19.125 6.46875V8.25C19.125 8.54837 19.2435 8.83452 19.4545 9.0455C19.6655 9.25647 19.9516 9.375 20.25 9.375C20.5484 9.375 20.8345 9.25647 21.0455 9.0455C21.2565 8.83452 21.375 8.54837 21.375 8.25V3.75C21.375 3.45163 21.2565 3.16548 21.0455 2.9545C20.8345 2.74353 20.5484 2.625 20.25 2.625ZM13.7259 18.2306C12.9392 19.0171 11.9369 19.5526 10.8458 19.7694C9.75471 19.9863 8.62383 19.8748 7.59613 19.4489C6.56843 19.0231 5.69006 18.3022 5.07208 17.3772C4.45409 16.4522 4.12425 15.3648 4.12425 14.2523C4.12425 13.1399 4.45409 12.0525 5.07208 11.1275C5.69006 10.2025 6.56843 9.48155 7.59613 9.05574C8.62383 8.62993 9.75471 8.5184 10.8458 8.73526C11.9369 8.95212 12.9392 9.48762 13.7259 10.2741C14.779 11.3302 15.3704 12.7609 15.3704 14.2523C15.3704 15.7438 14.779 17.1745 13.7259 18.2306Z" fill="#00A6ED"/>
</svg>
