<svg width="32" height="32" viewBox="0 0 32 32" fill="none" xmlns="http://www.w3.org/2000/svg">
<path d="M24 8.00002V5.33335H26.6667V2.66669H8.00004C6.53337 2.66669 5.33337 3.86669 5.33337 5.33335V26.6667C5.33337 28.1334 6.53337 29.3334 8.00004 29.3334H26.6667V26.6667H21.2934C22.1313 26.0524 22.813 25.2496 23.2832 24.323C23.7534 23.3965 23.999 22.3724 24 21.3334V14.6667H10.6667V21.3334C10.6667 23.52 11.7467 25.4534 13.3734 26.6667H8.00004V5.33335H10.6667V8.00002C10.6667 8.73335 11.2667 9.33335 12 9.33335H22.6667C23.4 9.33335 24 8.73335 24 8.00002ZM17.3334 10.6667C18.0667 10.6667 18.6667 11.2667 18.6667 12C18.6667 12.7334 18.0667 13.3334 17.3334 13.3334C16.6 13.3334 16 12.7334 16 12C16 11.2667 16.6 10.6667 17.3334 10.6667Z" fill="#E9E0D6"/>
</svg>
