<svg width="84" height="84" viewBox="0 0 84 84" fill="none" xmlns="http://www.w3.org/2000/svg">
<circle cx="41.75" cy="41.75" r="41.75" fill="white"/>
<path fill-rule="evenodd" clip-rule="evenodd" d="M38.1834 0.156202C28.6634 0.973976 19.6367 5.13374 12.6661 11.9155C0.834304 23.4267 -3.08758 40.5359 2.51324 56.2079C3.96558 60.2719 6.78613 65.1469 9.75042 68.7165C11.1373 70.3867 14.5806 73.8076 14.8748 73.8076C14.9637 73.8076 15.3083 73.5897 15.6408 73.3233C15.9732 73.0571 19.3026 71.1729 23.0395 69.1363C27.2295 66.8527 30.0721 65.2027 30.4557 64.8318C30.7977 64.5009 31.2766 63.8249 31.5199 63.3296C31.9459 62.4621 31.9641 62.3154 32.0139 59.3185L32.0656 56.2079L30.9674 54.5707C29.5417 52.4453 28.256 49.8132 27.5163 47.5057C27.0163 45.9463 26.8155 45.5467 26.218 44.9231C25.1488 43.8072 25.0041 43.1217 25.0041 39.172C25.0041 35.5217 25.1156 34.9228 26.0011 33.8187L26.4939 33.2043L26.4717 27.843C26.4509 22.8356 26.4723 22.4026 26.7955 21.2803C28.2148 16.3537 32.311 13.4662 38.8856 12.7583C41.0185 12.5286 42.7156 12.5286 44.8486 12.7583C51.4761 13.4719 55.6492 16.4483 56.9539 21.3925C57.2555 22.5354 57.2827 23.1097 57.263 27.9258L57.2416 33.2059L57.7494 33.8379C58.5898 34.8835 58.7301 35.6591 58.7301 39.2592C58.7301 42.9383 58.5806 43.7165 57.6692 44.7813C57.3518 45.1521 56.772 45.6104 56.3809 45.7998C55.7922 46.0848 55.6343 46.2633 55.4639 46.8375C55.1535 47.8825 53.8099 50.8206 53.0502 52.1149C52.6804 52.7452 51.9289 53.8872 51.3805 54.6526L50.3832 56.0442L50.3834 59.3185C50.3836 62.4339 50.4027 62.634 50.7778 63.4395C51.5088 65.0096 51.925 65.2771 59.6473 69.1417C63.5901 71.1146 67.2441 73.0149 67.7675 73.3644L68.7192 74L69.5018 73.3448C70.7318 72.3148 73.6048 69.2784 74.795 67.75C82.2429 58.1869 85.2186 46.0955 83.0371 34.2609C80.7082 21.6282 72.6662 10.739 61.2677 4.78436C54.1404 1.06107 46.1948 -0.531908 38.1834 0.156202Z" fill="#B3BCDD"/>
</svg>
